<svg width="92" height="102" viewBox="0 0 92 102" fill="none" xmlns="http://www.w3.org/2000/svg">
<g opacity="0.5">
<rect width="1.5" height="1.5" fill="#404852"/>
<rect x="10" width="1.5" height="1.5" fill="#404852"/>
<rect x="20" width="1.5" height="1.5" fill="#404852"/>
<rect x="30" width="1.5" height="1.5" fill="#404852"/>
<rect x="40" width="1.5" height="1.5" fill="#404852"/>
<rect x="50" width="1.5" height="1.5" fill="#404852"/>
<rect x="60" width="1.5" height="1.5" fill="#404852"/>
<rect x="70" width="1.5" height="1.5" fill="#404852"/>
<rect x="80" width="1.5" height="1.5" fill="#404852"/>
<rect x="90" width="1.5" height="1.5" fill="#404852"/>
<rect y="10" width="1.5" height="1.5" fill="#404852"/>
<rect x="10" y="10" width="1.5" height="1.5" fill="#404852"/>
<rect x="20" y="10" width="1.5" height="1.5" fill="#404852"/>
<rect x="30" y="10" width="1.5" height="1.5" fill="#404852"/>
<rect x="40" y="10" width="1.5" height="1.5" fill="#404852"/>
<rect x="50" y="10" width="1.5" height="1.5" fill="#404852"/>
<rect x="60" y="10" width="1.5" height="1.5" fill="#404852"/>
<rect x="70" y="10" width="1.5" height="1.5" fill="#404852"/>
<rect x="80" y="10" width="1.5" height="1.5" fill="#404852"/>
<rect x="90" y="10" width="1.5" height="1.5" fill="#404852"/>
<rect y="20" width="1.5" height="1.5" fill="#404852"/>
<rect x="10" y="20" width="1.5" height="1.5" fill="#404852"/>
<rect x="20" y="20" width="1.5" height="1.5" fill="#404852"/>
<rect x="30" y="20" width="1.5" height="1.5" fill="#404852"/>
<rect x="40" y="20" width="1.5" height="1.5" fill="#404852"/>
<rect x="50" y="20" width="1.5" height="1.5" fill="#404852"/>
<rect x="60" y="20" width="1.5" height="1.5" fill="#404852"/>
<rect x="70" y="20" width="1.5" height="1.5" fill="#404852"/>
<rect x="80" y="20" width="1.5" height="1.5" fill="#404852"/>
<rect x="90" y="20" width="1.5" height="1.5" fill="#404852"/>
<rect y="30" width="1.5" height="1.5" fill="#404852"/>
<rect x="10" y="30" width="1.5" height="1.5" fill="#404852"/>
<rect x="20" y="30" width="1.5" height="1.5" fill="#404852"/>
<rect x="30" y="30" width="1.5" height="1.5" fill="#404852"/>
<rect x="40" y="30" width="1.5" height="1.5" fill="#404852"/>
<rect x="50" y="30" width="1.5" height="1.5" fill="#404852"/>
<rect x="60" y="30" width="1.5" height="1.5" fill="#404852"/>
<rect x="70" y="30" width="1.5" height="1.5" fill="#404852"/>
<rect x="80" y="30" width="1.5" height="1.5" fill="#404852"/>
<rect x="90" y="30" width="1.5" height="1.5" fill="#404852"/>
<rect y="40" width="1.5" height="1.5" fill="#404852"/>
<rect x="10" y="40" width="1.5" height="1.5" fill="#404852"/>
<rect x="20" y="40" width="1.5" height="1.5" fill="#404852"/>
<rect x="30" y="40" width="1.5" height="1.5" fill="#404852"/>
<rect x="40" y="40" width="1.5" height="1.5" fill="#404852"/>
<rect x="50" y="40" width="1.5" height="1.5" fill="#404852"/>
<rect x="60" y="40" width="1.5" height="1.5" fill="#404852"/>
<rect x="70" y="40" width="1.5" height="1.5" fill="#404852"/>
<rect x="80" y="40" width="1.5" height="1.5" fill="#404852"/>
<rect x="90" y="40" width="1.5" height="1.5" fill="#404852"/>
<rect y="50" width="1.5" height="1.5" fill="#404852"/>
<rect x="10" y="50" width="1.5" height="1.5" fill="#404852"/>
<rect x="20" y="50" width="1.5" height="1.5" fill="#404852"/>
<rect x="30" y="50" width="1.5" height="1.5" fill="#404852"/>
<rect x="40" y="50" width="1.5" height="1.5" fill="#404852"/>
<rect x="50" y="50" width="1.5" height="1.5" fill="#404852"/>
<rect x="60" y="50" width="1.5" height="1.5" fill="#404852"/>
<rect x="70" y="50" width="1.5" height="1.5" fill="#404852"/>
<rect x="80" y="50" width="1.5" height="1.5" fill="#404852"/>
<rect x="90" y="50" width="1.5" height="1.5" fill="#404852"/>
<rect y="60" width="1.5" height="1.5" fill="#404852"/>
<rect x="10" y="60" width="1.5" height="1.5" fill="#404852"/>
<rect x="20" y="60" width="1.5" height="1.5" fill="#404852"/>
<rect x="30" y="60" width="1.5" height="1.5" fill="#404852"/>
<rect x="40" y="60" width="1.5" height="1.5" fill="#404852"/>
<rect x="50" y="60" width="1.5" height="1.5" fill="#404852"/>
<rect x="60" y="60" width="1.5" height="1.5" fill="#404852"/>
<rect x="70" y="60" width="1.5" height="1.5" fill="#404852"/>
<rect x="80" y="60" width="1.5" height="1.5" fill="#404852"/>
<rect x="90" y="60" width="1.5" height="1.5" fill="#404852"/>
<rect y="70" width="1.5" height="1.5" fill="#404852"/>
<rect x="10" y="70" width="1.5" height="1.5" fill="#404852"/>
<rect x="20" y="70" width="1.5" height="1.5" fill="#404852"/>
<rect x="30" y="70" width="1.5" height="1.5" fill="#404852"/>
<rect x="40" y="70" width="1.5" height="1.5" fill="#404852"/>
<rect x="50" y="70" width="1.5" height="1.5" fill="#404852"/>
<rect x="60" y="70" width="1.5" height="1.5" fill="#404852"/>
<rect x="70" y="70" width="1.5" height="1.5" fill="#404852"/>
<rect x="80" y="70" width="1.5" height="1.5" fill="#404852"/>
<rect x="90" y="70" width="1.5" height="1.5" fill="#404852"/>
<rect y="80" width="1.5" height="1.5" fill="#404852"/>
<rect x="10" y="80" width="1.5" height="1.5" fill="#404852"/>
<rect x="20" y="80" width="1.5" height="1.5" fill="#404852"/>
<rect x="30" y="80" width="1.5" height="1.5" fill="#404852"/>
<rect x="40" y="80" width="1.5" height="1.5" fill="#404852"/>
<rect x="50" y="80" width="1.5" height="1.5" fill="#404852"/>
<rect x="60" y="80" width="1.5" height="1.5" fill="#404852"/>
<rect x="70" y="80" width="1.5" height="1.5" fill="#404852"/>
<rect x="80" y="80" width="1.5" height="1.5" fill="#404852"/>
<rect x="90" y="80" width="1.5" height="1.5" fill="#404852"/>
<rect y="90" width="1.5" height="1.5" fill="#404852"/>
<rect x="10" y="90" width="1.5" height="1.5" fill="#404852"/>
<rect x="20" y="90" width="1.5" height="1.5" fill="#404852"/>
<rect x="30" y="90" width="1.5" height="1.5" fill="#404852"/>
<rect x="40" y="90" width="1.5" height="1.5" fill="#404852"/>
<rect x="50" y="90" width="1.5" height="1.5" fill="#404852"/>
<rect x="60" y="90" width="1.5" height="1.5" fill="#404852"/>
<rect x="70" y="90" width="1.5" height="1.5" fill="#404852"/>
<rect x="80" y="90" width="1.5" height="1.5" fill="#404852"/>
<rect x="90" y="90" width="1.5" height="1.5" fill="#404852"/>
<rect y="100" width="1.5" height="1.5" fill="#404852"/>
<rect x="10" y="100" width="1.5" height="1.5" fill="#404852"/>
<rect x="20" y="100" width="1.5" height="1.5" fill="#404852"/>
<rect x="30" y="100" width="1.5" height="1.5" fill="#404852"/>
<rect x="40" y="100" width="1.5" height="1.5" fill="#404852"/>
<rect x="50" y="100" width="1.5" height="1.5" fill="#404852"/>
<rect x="60" y="100" width="1.5" height="1.5" fill="#404852"/>
<rect x="70" y="100" width="1.5" height="1.5" fill="#404852"/>
<rect x="80" y="100" width="1.5" height="1.5" fill="#404852"/>
<rect x="90" y="100" width="1.5" height="1.5" fill="#404852"/>
</g>
</svg>
