<svg width="20" height="22" viewBox="0 0 20 22" fill="none" xmlns="http://www.w3.org/2000/svg">
<path fill-rule="evenodd" clip-rule="evenodd" d="M10.825 2.02502L18.025 9.75002C18.25 10.05 18.4 10.425 18.4 10.8V19.5C18.4 20.325 17.725 21 16.9 21H2.5C1.675 21 1 20.325 1 19.5V10.8C1 10.425 1.15 10.05 1.375 9.75002L8.575 2.02502C9.175 1.42502 10.075 1.35002 10.675 1.95002C10.75 2.02502 10.75 2.02502 10.825 2.02502Z" stroke="#1EA59A" stroke-width="2" stroke-linecap="round" stroke-linejoin="round"/>
<path fill-rule="evenodd" clip-rule="evenodd" d="M9.70001 14.1C11.0669 14.1 12.175 12.9919 12.175 11.625C12.175 10.2581 11.0669 9.15002 9.70001 9.15002C8.3331 9.15002 7.22501 10.2581 7.22501 11.625C7.22501 12.9919 8.3331 14.1 9.70001 14.1Z" stroke="#1EA59A" stroke-width="2" stroke-linecap="round" stroke-linejoin="round"/>
<path d="M8.64999 17.175H10.75" stroke="#1EA59A" stroke-width="2" stroke-linecap="round" stroke-linejoin="round"/>
</svg>
