<svg width="24" height="16" viewBox="0 0 24 16" fill="none" xmlns="http://www.w3.org/2000/svg">
<path d="M18.2739 9.56017C18.7718 9.56017 19.4689 9.21162 19.4689 9.21162C18.6224 11.4025 16.6307 12.4481 14.4398 13.1452V15.7344C17.1784 15.2365 24 11.1037 24 5.77593C24 2.6888 21.7095 0 18.6224 0C15.834 0 13.444 2.09129 13.444 4.87967C13.444 7.51867 15.6349 9.56017 18.2739 9.56017ZM4.82988 9.56017C2.19087 9.56017 0 7.51867 0 4.87967C0 2.09129 2.39004 0 5.17842 0C8.26556 0 10.556 2.6888 10.556 5.77593C10.556 11.1037 3.73444 15.2365 0.995851 15.7344V13.1452C3.18672 12.4481 5.17842 11.4025 6.0249 9.21162L5.95393 9.24533C5.76415 9.33278 5.23205 9.56017 4.82988 9.56017Z" fill="white"/>
</svg>
