<svg width="15" height="8" viewBox="0 0 15 8" fill="none" xmlns="http://www.w3.org/2000/svg">
<path d="M6.72 8H5.07L4.16 5.63C4.08667 5.44333 3.97333 5.31333 3.82 5.24C3.67333 5.16667 3.48667 5.13 3.26 5.13H2.25V8H0.71V0.88H3.88C4.70667 0.88 5.33333 1.06 5.76 1.42C6.18667 1.78 6.4 2.29667 6.4 2.97C6.4 3.44333 6.27333 3.85 6.02 4.19C5.77333 4.53 5.41667 4.77333 4.95 4.92C5.37 5.00667 5.67333 5.29667 5.86 5.79L6.72 8ZM3.65 3.94C4.09667 3.94 4.42333 3.86667 4.63 3.72C4.83667 3.56667 4.94 3.33 4.94 3.01C4.94 2.69 4.83667 2.45667 4.63 2.31C4.42333 2.15667 4.09667 2.08 3.65 2.08H2.23V3.94H3.65ZM12.9501 8L9.85008 4.71V8H8.29008V0.88H9.85008V4.01L12.8401 0.88H14.7001L11.3901 4.28L14.8301 8H12.9501Z" fill="white"/>
</svg>
